PathFileType	4	(X/Y/Z)	c:/Users/goper/Files/vsCode/490R/osim_files/C15/C15_Fast_02.trc
DataRate	CameraRate	NumFrames	NumMarkers	Units                	OrigDataRate	OrigDataStartFrame	OrigNumFrames
250.00	250.00	7	36	mm	250.0	1327	2123
                Frame#	Time	LPSIS			LASIS			LTH1			LTH2			LTH3			LTH4			LLFE			LMFE			LSH1			LSH2			LSH3			LSH4			LLMAL			LMMAL			LCAL			LMTP5			LTOE			LMTP1			RPSIS			RASIS			RTH1			RTH2			RTH3			RTH4			RLFE			RMFE			RSH1			RSH2			RSH3			RSH4			RLMAL			RMMAL			RCAL			RMTP1			RTOE			RMTP5		
		X1	Y1	Z1	X2	Y2	Z2	X3	Y3	Z3	X4	Y4	Z4	X5	Y5	Z5	X6	Y6	Z6	X7	Y7	Z7	X8	Y8	Z8	X9	Y9	Z9	X10	Y10	Z10	X11	Y11	Z11	X12	Y12	Z12	X13	Y13	Z13	X14	Y14	Z14	X15	Y15	Z15	X16	Y16	Z16	X17	Y17	Z17	X18	Y18	Z18	X19	Y19	Z19	X20	Y20	Z20	X21	Y21	Z21	X22	Y22	Z22	X23	Y23	Z23	X24	Y24	Z24	X25	Y25	Z25	X26	Y26	Z26	X27	Y27	Z27	X28	Y28	Z28	X29	Y29	Z29	X30	Y30	Z30	X31	Y31	Z31	X32	Y32	Z32	X33	Y33	Z33	X34	Y34	Z34	X35	Y35	Z35	X36	Y36	Z36

1327	5.30400	-2176.11060	1012.51520	221.47461	-2330.09912	982.33990	306.01041	-2250.35181	588.72943	368.35910	-2256.15259	542.45032	360.16162	-2301.30615	597.70056	375.23959	-2304.88501	552.51929	371.67352	-2270.82422	477.55737	353.62277	-2299.05811	445.72232	237.09250	-2167.63257	456.34433	353.01431	-2129.05200	430.45364	354.62698	-2196.35352	404.16141	364.50089	-2155.71851	384.32336	365.07031	-1933.49915	260.50583	290.82361	-1981.79395	239.12213	212.07016	-1907.12134	304.25003	232.83131	-1911.64709	129.03192	315.75089	-1965.74377	78.16384	272.67679	-1940.20020	103.91781	206.80670	-2194.68286	1021.34540	101.75648	-2357.86304	995.93848	58.69772	-2376.41235	629.73151	5.84702	-2388.27490	586.01147	18.90372	-2433.10156	643.24280	22.31577	-2439.68604	596.35657	28.80153	-2413.29883	499.40891	53.61107	-2391.55225	485.92538	168.17290	-2337.70581	390.86984	29.61827	-2338.34644	347.12509	28.53881	-2399.97363	382.81625	36.76515	-2391.02856	342.10538	33.43805	-2341.49854	90.14883	104.18863	-2373.15649	113.86903	189.92062	-2282.14282	67.41504	150.60689	-2484.85400	48.12984	189.96294	-2518.31714	69.56220	136.62953	-2458.39648	42.14866	71.24767
1328	5.30800	-2181.01538	1013.38055	221.19075	-2334.77710	983.33527	305.48242	-2258.51001	589.52277	368.36151	-2264.63428	543.16217	360.06384	-2309.14502	598.88696	375.31863	-2313.40845	553.89252	371.81793	-2279.98022	478.64325	353.65665	-2308.45264	446.98456	236.96162	-2177.15723	457.78995	352.65497	-2138.47876	431.68628	353.93716	-2205.82764	405.55768	364.39615	-2164.85449	385.59348	364.68137	-1943.08826	261.56628	289.97729	-1991.45605	240.55327	211.20406	-1915.37036	304.31674	231.73730	-1923.54968	129.88586	315.72061	-1979.02844	79.94787	273.12860	-1952.43896	104.61080	207.15894	-2199.29370	1021.95813	101.24084	-2362.26196	996.61273	58.18642	-2378.86401	629.78943	5.52406	-2392.24512	585.50604	18.43646	-2435.65894	643.01038	22.07227	-2441.92334	596.08136	28.53581	-2414.95190	499.26691	53.35753	-2392.94946	486.10989	167.98726	-2338.73413	390.91068	28.79237	-2339.57910	347.11566	27.96409	-2401.33960	382.61835	36.51483	-2392.30762	342.04071	33.21259	-2341.60962	90.18825	104.12578	-2373.28174	113.96071	189.90797	-2282.15527	67.50634	150.61766	-2484.85693	48.06602	189.97902	-2518.39111	69.38104	136.61058	-2458.42041	42.11606	71.20278
1329	5.31200	-2185.16235	1014.23651	220.82050	-2339.45312	984.25958	305.07550	-2266.59790	590.32257	368.38269	-2273.05298	544.17157	360.26538	-2317.24365	600.27521	375.40060	-2322.95557	555.66785	372.71365	-2289.07739	479.85150	353.63293	-2318.00708	448.32623	236.80414	-2186.71802	459.20319	352.35403	-2147.96387	433.09747	353.48386	-2215.24048	406.89523	364.16666	-2174.47729	387.07864	364.34799	-1952.86511	262.50937	289.14566	-2001.37305	241.93561	210.37149	-1923.58337	304.26614	230.86418	-1936.84424	130.72086	316.25317	-1992.57849	81.57121	273.42630	-1964.85889	105.10307	207.43437	-2203.86890	1022.62567	100.81387	-2366.61743	997.31476	57.68888	-2381.90015	630.20227	6.12532	-2394.26831	585.55560	18.18166	-2438.21606	642.74316	21.81822	-2444.14990	595.82294	28.29516	-2416.56763	499.16476	53.04700	-2393.93188	485.99634	167.62851	-2340.07031	390.93298	28.26122	-2340.78613	347.12698	27.44013	-2402.63892	382.53702	36.19051	-2393.42871	341.88922	32.92092	-2341.64600	90.17546	104.09023	-2373.30396	113.99213	189.90277	-2282.19653	67.59461	150.59981	-2484.85278	48.01193	190.04085	-2518.42065	69.24277	136.60347	-2458.40112	42.08852	71.17674
1330	5.31600	-2189.79980	1015.11395	220.50438	-2344.18457	985.21466	304.57834	-2274.63037	591.21790	368.42575	-2281.50635	545.05109	360.07953	-2325.15186	601.66052	375.46066	-2331.35840	557.07361	372.84930	-2298.07056	481.10965	353.56995	-2327.48804	449.71936	236.63135	-2196.06787	460.54578	351.86893	-2157.47168	434.42041	352.95776	-2224.58350	408.18753	363.94907	-2183.80322	388.47577	363.86020	-1962.66516	263.19742	288.30814	-2011.27539	243.14005	209.54781	-1931.90955	303.76385	230.01805	-1951.04529	131.10509	317.15308	-2006.52039	83.09566	273.47629	-1977.49268	105.48956	207.67844	-2207.66846	1023.69861	100.31622	-2371.04053	998.02490	57.15448	-2384.36401	630.40607	5.87127	-2396.35352	585.63348	17.90731	-2440.65771	642.53571	21.54326	-2446.32495	595.56171	28.03730	-2418.12744	498.95746	52.70066	-2395.32495	486.08011	167.39189	-2341.08838	391.02713	27.62607	-2342.01855	347.15109	26.97446	-2403.79834	382.38693	35.90971	-2394.62988	341.83533	32.64197	-2341.78027	90.18749	104.00790	-2373.39868	114.03381	189.89781	-2282.27881	67.62891	150.60942	-2484.85205	47.95433	190.07253	-2518.28638	69.13434	136.90152	-2458.43799	42.05937	71.13261
1331	5.32000	-2194.27930	1016.01794	220.12254	-2348.90454	986.15454	304.09921	-2282.62744	592.17236	368.50986	-2289.97095	546.10284	360.37537	-2333.00146	603.13745	375.54074	-2339.66577	558.59729	372.93570	-2307.14600	482.41110	353.46646	-2337.12817	451.15775	236.75400	-2205.66333	462.02811	351.57440	-2166.24707	436.23700	351.24786	-2233.89160	409.46091	363.62457	-2192.86133	389.70877	363.32715	-1972.72034	263.63126	287.59796	-2021.24890	244.13908	208.72983	-1939.95178	303.10922	229.55879	-1964.62634	131.58427	317.52213	-2020.74243	84.62620	273.54199	-1990.25757	105.75172	207.91248	-2212.54150	1024.23560	100.07578	-2375.30054	998.69958	56.56601	-2386.71069	630.59497	5.59645	-2398.42139	585.76111	17.59994	-2443.11304	642.29236	21.21693	-2448.45312	595.39783	27.71199	-2419.58081	498.82971	52.36220	-2395.91113	485.91647	166.25739	-2342.55151	391.03680	27.33257	-2343.00830	347.26743	26.51783	-2404.99146	382.26367	35.59875	-2395.61743	341.77344	32.38459	-2341.91357	90.21622	103.91779	-2373.46924	114.08489	189.84694	-2282.29614	67.69786	150.60309	-2484.89429	47.92055	190.05965	-2518.37085	68.99171	136.84982	-2458.46387	41.99701	71.08591
1332	5.32400	-2198.97144	1017.02252	219.82358	-2353.58350	987.20245	303.51346	-2290.58472	593.23126	368.59851	-2298.32959	547.10114	360.31363	-2340.99048	604.59119	375.58728	-2347.96484	560.10284	373.02628	-2316.09644	483.74164	353.35397	-2346.10181	452.83167	236.30817	-2214.86108	463.21448	351.01120	-2175.27930	437.51035	350.49918	-2243.16992	410.69843	363.29675	-2202.50610	390.98828	362.89105	-1982.72668	263.80405	286.89264	-2031.24951	244.86714	207.94421	-1948.46362	302.11121	228.98486	-1978.38562	131.95532	317.93103	-2034.17700	85.73238	273.50333	-2003.50537	105.80143	208.30449	-2217.37061	1025.11072	100.56876	-2379.81885	999.50024	56.03934	-2389.03564	630.75757	5.25773	-2400.59570	585.82513	17.26457	-2445.43628	642.08765	20.89351	-2450.63696	595.21558	27.42233	-2421.01025	498.66592	52.03122	-2396.56836	485.88574	165.97575	-2343.64087	391.15329	27.01251	-2344.01880	347.31064	26.23570	-2405.92407	382.24005	35.36506	-2396.60059	341.72607	32.14679	-2342.09131	90.26041	103.84419	-2373.36157	114.05519	189.38316	-2282.32959	67.81117	150.58604	-2484.97510	47.93747	190.06299	-2518.63696	68.79626	136.51045	-2458.48999	41.97232	71.05048
1333	5.32800	-2203.67603	1017.89197	219.37683	-2358.35327	988.21143	302.96173	-2298.57520	594.29584	368.71878	-2306.81323	548.44855	360.69965	-2348.85034	606.09033	375.68542	-2356.23755	561.66150	373.06058	-2324.56982	485.32971	353.71838	-2355.47046	454.40613	236.20999	-2224.28687	464.34100	350.57782	-2184.67798	438.55777	349.76889	-2252.61499	411.95395	363.05710	-2211.90576	392.08304	362.32529	-1993.01843	263.74677	286.26483	-2041.44702	245.48547	207.22583	-1957.17065	300.83502	228.50430	-1992.20959	132.15140	318.25934	-2049.29712	86.96799	273.15710	-2016.64246	105.72964	208.41862	-2221.73047	1025.93396	100.23103	-2383.21240	999.81677	55.32880	-2391.27563	630.98486	4.95446	-2402.66870	585.91986	16.97613	-2447.72803	641.82776	20.59564	-2452.66357	595.00250	27.16575	-2422.44629	498.58600	51.69261	-2397.84546	485.85770	165.64471	-2344.27197	391.43866	26.62284	-2344.80273	347.46893	26.03409	-2406.87329	382.26733	35.09677	-2397.26855	341.69467	31.90915	-2342.21094	90.28517	103.80553	-2374.40210	114.66683	190.02057	-2282.39819	67.90854	150.63647	-2485.06421	47.97725	190.04861	-2518.73242	68.65165	136.46848	-2458.51904	41.92622	71.01113
